<?xml version="1.0" encoding="UTF-8" standalone="no"?>
<!-- Created with Inkscape (http://www.inkscape.org/) -->

<svg
   width="210mm"
   height="297mm"
   viewBox="0 0 210 297"
   version="1.1"
   id="svg1"
   inkscape:version="1.3.2 (1:1.3.2+202311252150+091e20ef0f)"
   sodipodi:docname="vodak_overview.svg"
   inkscape:export-filename="vodak_overview.jpg"
   inkscape:export-xdpi="200"
   inkscape:export-ydpi="200"
   xmlns:inkscape="http://www.inkscape.org/namespaces/inkscape"
   xmlns:sodipodi="http://sodipodi.sourceforge.net/DTD/sodipodi-0.dtd"
   xmlns="http://www.w3.org/2000/svg"
   xmlns:svg="http://www.w3.org/2000/svg">
  <sodipodi:namedview
     id="namedview1"
     pagecolor="#ffffff"
     bordercolor="#666666"
     borderopacity="1.0"
     inkscape:showpageshadow="2"
     inkscape:pageopacity="0.0"
     inkscape:pagecheckerboard="0"
     inkscape:deskcolor="#d1d1d1"
     inkscape:document-units="mm"
     inkscape:zoom="0.43740881"
     inkscape:cx="396.6541"
     inkscape:cy="561.25984"
     inkscape:window-width="1366"
     inkscape:window-height="737"
     inkscape:window-x="0"
     inkscape:window-y="0"
     inkscape:window-maximized="1"
     inkscape:current-layer="layer1"
     showgrid="false" />
  <defs
     id="defs1" />
  <g
     inkscape:label="Layer 1"
     inkscape:groupmode="layer"
     id="layer1">
    <rect
       style="opacity:0.518089;fill:#ffaaaa;stroke:#916f6f;stroke-width:0.614406;stroke-dasharray:none"
       id="rect83"
       width="12.559134"
       height="17.305241"
       x="114.3417"
       y="244.59741"
       inkscape:export-filename="vodak_overview.jpg"
       inkscape:export-xdpi="200"
       inkscape:export-ydpi="200" />
    <g
       id="rect27"
       style="opacity:0.5"
       transform="matrix(1.2288153,0,0,1.2288153,-22.669511,-26.970457)">
      <path
         style="color:#000000;fill:#ff6600;-inkscape-stroke:none"
         d="m 133.078,51.310642 h 11.23737 c 0.46015,0 0.87957,0.383919 0.8927,0.843889 l 0.0233,0.817321 -12.94454,0.02005 -0.0395,-0.850654 c -0.0213,-0.45966 0.37045,-0.830605 0.83061,-0.830605 z"
         id="path27"
         sodipodi:nodetypes="sssccsss" />
      <path
         style="color:#000000;fill:#803300;-inkscape-stroke:none"
         d="m 133.07812,51.259766 c -0.48698,0 -1.06142,0.428583 -0.88085,0.880859 l 0.007,0.872118 13.00521,0.0087 0.0181,-0.847009 c 0.0104,-0.486882 -0.42583,-0.914709 -0.91282,-0.914709 z m 0,0.101562 h 11.23633 c 0.43332,0 0.81947,0.352704 0.82987,0.785897 l -0.003,0.797607 -12.84781,-0.02296 0.004,-0.78125 c 0.002,-0.433313 0.34794,-0.779297 0.78125,-0.779297 z"
         id="path28"
         sodipodi:nodetypes="ssccssssssccsss" />
    </g>
    <g
       id="g1"
       transform="matrix(1.2288153,0,0,1.2288153,-13.546473,-108.37401)">
      <path
         id="rect1"
         style="opacity:0.5;fill:none;stroke:#000000;stroke-width:0.142127"
         d="m 54.327716,128.589 c 1.736143,0.0107 2.76852,1.09685 3.334054,1.79426 0.653352,0.8057 7.066898,0.67489 7.066898,0.67489 0,0 6.420606,0.53893 7.519522,-1.48874 0.729393,-1.34584 3.151347,-1.04551 3.877801,-1.05602 1.931732,-0.0279 3.00693,1.69264 3.00693,3.70123 v 12.20372 c 0,2.0086 -1.617025,3.62562 -3.625617,3.62562 H 54.327716 c -2.008592,0 -3.625617,-1.61702 -3.625617,-3.62562 v -12.20372 c 0,-2.00859 1.617063,-3.63803 3.625617,-3.62562 z"
         sodipodi:nodetypes="sscsssssssss" />
      <path
         id="path1"
         style="opacity:0.5;fill:#c8b7b7;stroke:#000000;stroke-width:0.131391"
         d="m 52.371163,131.87646 c 0.566081,0.59085 1.912498,1.19183 2.878957,-0.007 0.759821,1.14149 1.995799,0.0339 1.995799,0.0339 0,0 0.736024,1.04686 2.639137,0.0252 0.779296,0.60556 1.762834,0.82127 2.738834,0.0489 0.355289,0.37613 1.342595,0.6548 2.291025,0.11517 0.54704,0.59767 1.075858,0.88912 2.237638,0.0163 0.549933,0.90535 1.926538,0.38734 2.238106,-0.01 0.905749,0.61352 1.664593,0.58586 2.495063,-0.0338 0.568708,0.83379 1.979902,0.92334 2.76641,0.0411 0.648714,0.83313 1.674502,0.77772 2.668008,-0.0593 0.437285,0.69432 0.820588,1.03829 1.764837,0.10065 0.03448,0.8928 0.05332,1.15585 0.05332,2.37802 v 10.42566 c 0,1.71595 -1.617636,3.09737 -3.626987,3.09737 H 54.323714 c -2.009351,0 -3.626987,-1.38142 -3.626987,-3.09737 V 134.5256 c 0,-1.13248 -0.03907,-1.95307 0.02096,-2.60574 1.016151,0.80935 1.059538,0.4939 1.653477,-0.0441 z"
         sodipodi:nodetypes="ccccccccccccsssssscc" />
    </g>
    <g
       id="g3"
       transform="matrix(1.2288153,0,0,1.2288153,-13.546473,-56.382703)">
      <path
         id="path2"
         style="opacity:0.5;fill:none;stroke:#000000;stroke-width:0.142127"
         d="m 54.327716,128.589 c 1.736143,0.0107 2.76852,1.09685 3.334054,1.79426 0.653352,0.8057 7.066898,0.67489 7.066898,0.67489 0,0 6.420606,0.53893 7.519522,-1.48874 0.729393,-1.34584 3.151347,-1.04551 3.877801,-1.05602 1.931732,-0.0279 3.00693,1.69264 3.00693,3.70123 v 12.20372 c 0,2.0086 -1.617025,3.62562 -3.625617,3.62562 H 54.327716 c -2.008592,0 -3.625617,-1.61702 -3.625617,-3.62562 v -12.20372 c 0,-2.00859 1.617063,-3.63803 3.625617,-3.62562 z"
         sodipodi:nodetypes="sscsssssssss" />
      <path
         id="path3"
         style="opacity:0.5;fill:#c8b7b7;stroke:#000000;stroke-width:0.131391"
         d="m 52.371163,131.87646 c 0.566081,0.59085 1.912498,1.19183 2.878957,-0.007 0.759821,1.14149 1.995799,0.0339 1.995799,0.0339 0,0 0.736024,1.04686 2.639137,0.0252 0.779296,0.60556 1.762834,0.82127 2.738834,0.0489 0.355289,0.37613 1.342595,0.6548 2.291025,0.11517 0.54704,0.59767 1.075858,0.88912 2.237638,0.0163 0.549933,0.90535 1.926538,0.38734 2.238106,-0.01 0.905749,0.61352 1.664593,0.58586 2.495063,-0.0338 0.568708,0.83379 1.979902,0.92334 2.76641,0.0411 0.648714,0.83313 1.674502,0.77772 2.668008,-0.0593 0.437285,0.69432 0.820588,1.03829 1.764837,0.10065 0.03448,0.8928 0.05332,1.15585 0.05332,2.37802 v 10.42566 c 0,1.71595 -1.617636,3.09737 -3.626987,3.09737 H 54.323714 c -2.009351,0 -3.626987,-1.38142 -3.626987,-3.09737 V 134.5256 c 0,-1.13248 -0.03907,-1.95307 0.02096,-2.60574 1.016151,0.80935 1.059538,0.4939 1.653477,-0.0441 z"
         sodipodi:nodetypes="ccccccccccccsssssscc" />
    </g>
    <g
       id="g5"
       transform="matrix(1.2288153,0,0,1.2288153,-13.546473,-4.3913926)">
      <path
         id="path4"
         style="opacity:0.5;fill:none;stroke:#000000;stroke-width:0.142127"
         d="m 54.327716,128.589 c 1.736143,0.0107 2.76852,1.09685 3.334054,1.79426 0.653352,0.8057 7.066898,0.67489 7.066898,0.67489 0,0 6.420606,0.53893 7.519522,-1.48874 0.729393,-1.34584 3.151347,-1.04551 3.877801,-1.05602 1.931732,-0.0279 3.00693,1.69264 3.00693,3.70123 v 12.20372 c 0,2.0086 -1.617025,3.62562 -3.625617,3.62562 H 54.327716 c -2.008592,0 -3.625617,-1.61702 -3.625617,-3.62562 v -12.20372 c 0,-2.00859 1.617063,-3.63803 3.625617,-3.62562 z"
         sodipodi:nodetypes="sscsssssssss" />
      <path
         id="path5"
         style="opacity:0.5;fill:#c8b7b7;stroke:#000000;stroke-width:0.131391"
         d="m 52.371163,131.87646 c 0.566081,0.59085 1.912498,1.19183 2.878957,-0.007 0.759821,1.14149 1.995799,0.0339 1.995799,0.0339 0,0 0.736024,1.04686 2.639137,0.0252 0.779296,0.60556 1.762834,0.82127 2.738834,0.0489 0.355289,0.37613 1.342595,0.6548 2.291025,0.11517 0.54704,0.59767 1.075858,0.88912 2.237638,0.0163 0.549933,0.90535 1.926538,0.38734 2.238106,-0.01 0.905749,0.61352 1.664593,0.58586 2.495063,-0.0338 0.568708,0.83379 1.979902,0.92334 2.76641,0.0411 0.648714,0.83313 1.674502,0.77772 2.668008,-0.0593 0.437285,0.69432 0.820588,1.03829 1.764837,0.10065 0.03448,0.8928 0.05332,1.15585 0.05332,2.37802 v 10.42566 c 0,1.71595 -1.617636,3.09737 -3.626987,3.09737 H 54.323714 c -2.009351,0 -3.626987,-1.38142 -3.626987,-3.09737 V 134.5256 c 0,-1.13248 -0.03907,-1.95307 0.02096,-2.60574 1.016151,0.80935 1.059538,0.4939 1.653477,-0.0441 z"
         sodipodi:nodetypes="ccccccccccccsssssscc" />
    </g>
    <g
       id="g7"
       transform="matrix(1.2288153,0,0,1.2288153,-13.546473,47.599918)">
      <path
         id="path6"
         style="opacity:0.5;fill:none;stroke:#000000;stroke-width:0.142127"
         d="m 54.327716,128.589 c 1.736143,0.0107 2.76852,1.09685 3.334054,1.79426 0.653352,0.8057 7.066898,0.67489 7.066898,0.67489 0,0 6.420606,0.53893 7.519522,-1.48874 0.729393,-1.34584 3.151347,-1.04551 3.877801,-1.05602 1.931732,-0.0279 3.00693,1.69264 3.00693,3.70123 v 12.20372 c 0,2.0086 -1.617025,3.62562 -3.625617,3.62562 H 54.327716 c -2.008592,0 -3.625617,-1.61702 -3.625617,-3.62562 v -12.20372 c 0,-2.00859 1.617063,-3.63803 3.625617,-3.62562 z"
         sodipodi:nodetypes="sscsssssssss" />
      <path
         id="path7"
         style="opacity:0.5;fill:#c8b7b7;stroke:#000000;stroke-width:0.131391"
         d="m 52.371163,131.87646 c 0.566081,0.59085 1.912498,1.19183 2.878957,-0.007 0.759821,1.14149 1.995799,0.0339 1.995799,0.0339 0,0 0.736024,1.04686 2.639137,0.0252 0.779296,0.60556 1.762834,0.82127 2.738834,0.0489 0.355289,0.37613 1.342595,0.6548 2.291025,0.11517 0.54704,0.59767 1.075858,0.88912 2.237638,0.0163 0.549933,0.90535 1.926538,0.38734 2.238106,-0.01 0.905749,0.61352 1.664593,0.58586 2.495063,-0.0338 0.568708,0.83379 1.979902,0.92334 2.76641,0.0411 0.648714,0.83313 1.674502,0.77772 2.668008,-0.0593 0.437285,0.69432 0.820588,1.03829 1.764837,0.10065 0.03448,0.8928 0.05332,1.15585 0.05332,2.37802 v 10.42566 c 0,1.71595 -1.617636,3.09737 -3.626987,3.09737 H 54.323714 c -2.009351,0 -3.626987,-1.38142 -3.626987,-3.09737 V 134.5256 c 0,-1.13248 -0.03907,-1.95307 0.02096,-2.60574 1.016151,0.80935 1.059538,0.4939 1.653477,-0.0441 z"
         sodipodi:nodetypes="ccccccccccccsssssscc" />
    </g>
    <rect
       style="opacity:0.5;fill:#ff6600;stroke:#803300;stroke-width:0.122882;stroke-dasharray:none"
       id="rect7"
       width="1.4001693"
       height="44.664295"
       x="139.84094"
       y="38.11536" />
    <path
       style="opacity:0.5;fill:#ff6600;stroke:#803300;stroke-width:0.122882;stroke-linecap:butt;stroke-linejoin:miter;stroke-dasharray:none;stroke-opacity:1"
       d="m 138.89972,244.44595 0.027,0.88232 c 0.19884,0.69718 0.69787,0.9786 1.17392,2.53017 l 0.87124,0.004 c 0.2805,-1.49728 1.03964,-1.68143 1.232,-2.54978 l 0.0198,-0.9212 z"
       id="path17"
       sodipodi:nodetypes="ccccccc" />
    <rect
       style="opacity:0.5;fill:#ff6600;stroke:#803300;stroke-width:0.122882;stroke-dasharray:none"
       id="rect8"
       width="3.3142395"
       height="147.61607"
       x="138.88391"
       y="96.809204" />
    <rect
       style="opacity:0.5;fill:#ff6600;stroke:#803300;stroke-width:0.122882;stroke-dasharray:none"
       id="rect9"
       width="3.4418678"
       height="13.776756"
       x="138.82011"
       y="82.837852" />
    <g
       id="g10"
       transform="matrix(0.51083606,0,0,0.51083606,15.948804,138.23949)">
      <path
         id="path9"
         style="opacity:0.5;fill:#e6e6e6;stroke:#803300;stroke-width:0.1"
         d="m 158.64406,76.892981 c -1.88163,-0.07071 -3.686,0.55835 -4.77283,3.803902 -2.07451,6.195032 -2.2133,13.274732 -2.2133,22.994467 0,11.85041 4.73772,21.98715 6.08335,25.82116 0.86503,2.46469 2.02932,5.25135 2.77864,6.84661 h -0.0124 v 2.67064 h 3.84886 v -2.67064 h -0.0558 c 0.75906,-1.56798 1.80453,-4.30645 2.71973,-6.66626 1.36945,-3.53111 6.20013,-14.02822 6.20013,-26.00151 0,-9.890042 0.0575,-16.854929 -2.08101,-23.066297 -1.92063,-5.578498 -5.44779,-3.198765 -8.26512,-3.198771 -1.25622,-2e-6 -2.76675,-0.478302 -4.23024,-0.533301 z" />
      <path
         id="path10"
         style="opacity:0.5;fill:#ffaaaa;stroke:#803300;stroke-width:0.1"
         d="m 157.52128,90.813987 c -0.57439,0.522251 -0.73224,0.589793 -1.60962,0.02878 -0.89843,0.303696 -1.24653,0.616049 -1.95538,-0.06365 -0.53966,0.773499 -1.33552,0.553418 -1.931,0.02072 -0.2336,4.189013 -0.36735,3.171773 -0.36735,12.891503 0,11.85041 4.73772,21.98715 6.08335,25.82116 0.86503,2.46469 2.02932,5.25135 2.77864,6.84661 h -0.0124 v 2.67064 h 3.84886 v -2.67064 h -0.0558 c 0.75906,-1.56798 1.80453,-4.30645 2.71973,-6.66626 1.36945,-3.5311 6.20013,-14.02821 6.20013,-26.0015 0,-9.890047 -0.15279,-9.946778 -0.21432,-12.405228 -0.73334,0.515537 -0.86545,0.249244 -1.28098,-0.417254 -0.31364,0.71295 -1.1607,0.56301 -1.8424,0.02543 -0.43309,0.617294 -1.09204,0.516796 -1.57175,0.179907 -0.50318,0.512521 -1.26906,0.517774 -1.74004,-0.026 -0.5821,0.591234 -1.32558,0.455609 -1.84563,-0.09373 -0.38308,0.603361 -1.1596,0.461545 -1.78372,0.0099 -0.70523,0.584752 -1.19196,0.571126 -1.89542,0.06134 -0.54329,0.496658 -0.96868,0.432897 -1.70595,-0.08491 -0.66944,0.439819 -1.19747,0.511411 -1.81894,-0.126846 z"
         sodipodi:nodetypes="ccccssccccccsscccccccccc" />
    </g>
    <g
       id="g18"
       transform="matrix(1.2288153,0,0,1.2288153,9.0223136,2.4803047)">
      <path
         id="path11"
         style="opacity:0.5;fill:#e6e6e6;stroke:#803300;stroke-width:0.0415714"
         d="m 87.437283,152.35067 c -0.782221,-0.0294 -1.532323,0.23211 -1.984134,1.58134 -0.862403,2.57536 -0.9201,5.51849 -0.9201,9.55912 0,4.92639 1.969537,9.14038 2.528935,10.73423 0.359605,1.02461 0.843617,2.18306 1.15512,2.84623 h -0.0052 v 1.11023 h 1.600026 v -1.11023 h -0.0232 c 0.315552,-0.65183 0.750169,-1.79025 1.13063,-2.77126 0.5693,-1.46793 2.577483,-5.83173 2.577483,-10.8092 0,-4.11143 0.0239,-7.00683 -0.865106,-9.58898 -0.798433,-2.31907 -2.264724,-1.32978 -3.435928,-1.32978 -0.522229,0 -1.150178,-0.19884 -1.758571,-0.2217 z" />
      <path
         id="path12"
         style="opacity:0.5;fill:#f4d7d7;stroke:#803300;stroke-width:0.0415714"
         d="m 86.970527,158.13783 c -0.238782,0.21711 -0.304403,0.24519 -0.669142,0.012 -0.37349,0.12626 -0.5182,0.2561 -0.812879,-0.0265 -0.224345,0.32156 -0.555195,0.23007 -0.802745,0.009 -0.09711,1.74143 -0.152712,1.31855 -0.152712,5.35918 0,4.92638 1.969537,9.14037 2.528935,10.73422 0.359605,1.02461 0.843617,2.18307 1.15512,2.84624 h -0.0052 v 1.11022 h 1.600026 v -1.11022 h -0.0232 c 0.315552,-0.65183 0.750169,-1.79025 1.13063,-2.77126 0.5693,-1.46793 2.577483,-5.83173 2.577483,-10.8092 0,-4.11143 -0.06352,-4.13501 -0.0891,-5.15703 -0.30486,0.21432 -0.35978,0.10362 -0.532522,-0.17345 -0.130384,0.29638 -0.482519,0.23405 -0.765912,0.0106 -0.180041,0.25661 -0.453976,0.21484 -0.653399,0.0748 -0.209179,0.21306 -0.527566,0.21524 -0.723359,-0.0108 -0.241987,0.24578 -0.551063,0.1894 -0.767255,-0.039 -0.159252,0.25083 -0.482062,0.19187 -0.741518,0.004 -0.293174,0.24309 -0.495514,0.23742 -0.787953,0.0255 -0.225853,0.20647 -0.402694,0.17996 -0.709188,-0.0353 -0.278295,0.18284 -0.497805,0.2126 -0.756159,-0.0527 z"
         sodipodi:nodetypes="ccccssccccccsscccccccccc" />
    </g>
    <g
       id="g16"
       style="fill:#ff6600;stroke:#803300"
       transform="matrix(-1.2288153,0,0,1.2288153,256.34864,0.17691135)">
      <rect
         style="opacity:0.5;fill:#ff6600;stroke:#803300;stroke-width:0.1;stroke-dasharray:none"
         id="rect12"
         width="32.449791"
         height="1.0098218"
         x="94.255142"
         y="201.29111" />
      <rect
         style="opacity:0.5;fill:#ff6600;stroke:#803300;stroke-width:0.0678717;stroke-dasharray:none"
         id="rect13"
         width="32.449791"
         height="1.0098218"
         x="94.255142"
         y="202.28603" />
      <rect
         style="opacity:0.5;fill:#ff6600;stroke:#803300;stroke-width:0.1;stroke-dasharray:none"
         id="rect14"
         width="32.449791"
         height="1.0098218"
         x="94.255142"
         y="203.22673" />
      <rect
         style="opacity:0.5;fill:#ff6600;stroke:#803300;stroke-width:0.1;stroke-dasharray:none"
         id="rect15"
         width="32.449791"
         height="1.0098218"
         x="94.255142"
         y="204.29666" />
      <rect
         style="opacity:0.5;fill:#ff6600;stroke:#803300;stroke-width:0.0678717;stroke-dasharray:none"
         id="rect16"
         width="32.449791"
         height="1.0098218"
         x="94.255142"
         y="205.31905" />
      <ellipse
         style="opacity:0.5;fill:#ff6600;stroke:#803300;stroke-width:0.1;stroke-dasharray:none"
         id="path16"
         cx="94.24733"
         cy="201.77451"
         rx="0.44746405"
         ry="0.46463066" />
      <ellipse
         style="opacity:0.5;fill:#ff6600;stroke:#803300;stroke-width:0.1;stroke-dasharray:none"
         id="ellipse16"
         cx="126.66035"
         cy="205.78491"
         rx="0.44746405"
         ry="0.46463066" />
    </g>
    <path
       id="path18"
       style="opacity:0.5;fill:#999999;stroke:#666666;stroke-width:0.0510836"
       d="m 122.54976,263.92129 c 0.9612,0.0361 1.88294,-0.28522 2.43813,-1.94317 1.05973,-3.16464 1.21816,-6.78198 1.13063,-11.74639 -0.0929,-5.27007 -2.09625,-5.76498 -3.10759,-7.5776 -0.41407,-0.74215 -0.374,-0.90076 -0.43454,-1.95643 l 0.0697,-1.26765 h -3.91915 l 0.0457,1.32087 c -0.0859,1.11777 -0.21456,1.08097 -0.50187,1.81108 -0.69956,1.80382 -3.16724,2.50608 -3.16724,7.66973 0,5.05218 -0.0294,8.6101 1.06305,11.78308 0.98113,2.84971 2.78293,1.63406 4.22212,1.63406 0.64172,0 1.41336,0.24433 2.16096,0.27242 z"
       sodipodi:nodetypes="ssssccccssssss" />
    <rect
       style="font-variation-settings:normal;opacity:0.5;fill:#999999;fill-opacity:1;stroke:#666666;stroke-width:0.122882;stroke-linecap:butt;stroke-linejoin:miter;stroke-miterlimit:4;stroke-dasharray:none;stroke-dashoffset:0;stroke-opacity:1"
       id="rect18"
       width="8.1605902"
       height="13.541012"
       x="151.64076"
       y="106.76338" />
    <rect
       style="font-variation-settings:normal;opacity:0.5;fill:#999999;fill-opacity:1;stroke:#666666;stroke-width:0.122882;stroke-linecap:butt;stroke-linejoin:miter;stroke-miterlimit:4;stroke-dasharray:none;stroke-dashoffset:0;stroke-opacity:1"
       id="rect19"
       width="8.1605902"
       height="13.541012"
       x="150.53656"
       y="44.882294" />
    <g
       id="g13"
       transform="matrix(1.2288153,0,0,1.2288153,-22.763011,-26.970457)">
      <path
         style="fill:none;stroke:#d35f5f;stroke-width:0.5;stroke-linecap:butt;stroke-linejoin:miter;stroke-dasharray:none;stroke-opacity:1"
         d="m 85.930617,77.658517 c 2.869152,-0.272441 7.089648,0.826354 8.272672,3.101627 1.097835,2.111432 0.279887,15.172627 0.279887,15.172627 0,0 -1.989987,6.200059 -6.859612,4.858659 -4.869627,-1.341406 -4.218414,4.71276 -4.218414,4.71276"
         id="path8"
         sodipodi:nodetypes="cscsc" />
      <path
         style="opacity:1;fill:#999999;stroke:#d35f5f;stroke-width:0.499999;stroke-dasharray:none"
         id="path13"
         sodipodi:type="arc"
         sodipodi:cx="94.700233"
         sodipodi:cy="82.908089"
         sodipodi:rx="1.0668796"
         sodipodi:ry="1.0668796"
         sodipodi:start="1.5940765"
         sodipodi:end="1.5466776"
         sodipodi:arc-type="slice"
         d="m 94.675399,83.974679 a 1.0668796,1.0668796 0 0 1 -1.041975,-1.078785 1.0668796,1.0668796 0 0 1 1.066362,-1.054685 1.0668796,1.0668796 0 0 1 1.067247,1.05379 1.0668796,1.0668796 0 0 1 -1.04107,1.079659 l -0.02573,-1.066569 z" />
    </g>
    <g
       id="g15"
       transform="matrix(1.2288153,0,0,1.2288153,-22.763011,26.2084)">
      <path
         style="fill:none;stroke:#d35f5f;stroke-width:0.5;stroke-linecap:butt;stroke-linejoin:miter;stroke-dasharray:none;stroke-opacity:1"
         d="m 85.930617,77.658517 c 2.869152,-0.272441 7.089648,0.826354 8.272672,3.101627 1.097835,2.111432 0.279887,15.172627 0.279887,15.172627 0,0 -1.989987,6.200059 -6.859612,4.858659 -4.869627,-1.341406 -4.218414,4.71276 -4.218414,4.71276"
         id="path14"
         sodipodi:nodetypes="cscsc" />
      <path
         style="opacity:1;fill:#999999;stroke:#d35f5f;stroke-width:0.499999;stroke-dasharray:none"
         id="path15"
         sodipodi:type="arc"
         sodipodi:cx="94.700233"
         sodipodi:cy="82.908089"
         sodipodi:rx="1.0668796"
         sodipodi:ry="1.0668796"
         sodipodi:start="1.5940765"
         sodipodi:end="1.5466776"
         sodipodi:arc-type="slice"
         d="m 94.675399,83.974679 a 1.0668796,1.0668796 0 0 1 -1.041975,-1.078785 1.0668796,1.0668796 0 0 1 1.066362,-1.054685 1.0668796,1.0668796 0 0 1 1.067247,1.05379 1.0668796,1.0668796 0 0 1 -1.04107,1.079659 l -0.02573,-1.066569 z" />
    </g>
    <g
       id="g20"
       transform="matrix(1.2288153,0,0,1.2288153,-22.763011,76.6052)">
      <path
         style="fill:none;stroke:#d35f5f;stroke-width:0.5;stroke-linecap:butt;stroke-linejoin:miter;stroke-dasharray:none;stroke-opacity:1"
         d="m 85.930617,77.658517 c 2.869152,-0.272441 5.313828,0.221063 5.676442,2.759748 0.886606,6.207191 -1.893782,19.682275 4.252224,18.509976"
         id="path19"
         sodipodi:nodetypes="csc" />
      <path
         style="opacity:1;fill:#999999;stroke:#d35f5f;stroke-width:0.499999;stroke-dasharray:none"
         id="path20"
         sodipodi:type="arc"
         sodipodi:cx="91.761856"
         sodipodi:cy="83.786186"
         sodipodi:rx="1.0668796"
         sodipodi:ry="1.0668796"
         sodipodi:start="1.5940765"
         sodipodi:end="1.5466776"
         sodipodi:arc-type="slice"
         d="m 91.737021,84.852777 a 1.0668796,1.0668796 0 0 1 -1.041975,-1.078785 1.0668796,1.0668796 0 0 1 1.066363,-1.054685 1.0668796,1.0668796 0 0 1 1.067246,1.05379 1.0668796,1.0668796 0 0 1 -1.04107,1.079659 l -0.02573,-1.06657 z" />
    </g>
    <g
       id="g22"
       transform="matrix(1.2288153,0,0,1.2288153,-1.8618026,96.909389)">
      <path
         style="fill:none;stroke:#d35f5f;stroke-width:0.5;stroke-linecap:butt;stroke-linejoin:miter;stroke-dasharray:none;stroke-opacity:1"
         d="m 85.930617,77.658517 c 2.869152,-0.272441 5.313828,0.221063 5.676442,2.759748 0.886606,6.207191 -2.420082,12.762447 3.725924,11.590151"
         id="path21"
         sodipodi:nodetypes="csc" />
    </g>
    <g
       id="g23"
       transform="matrix(1.2288153,0,0,1.2288153,17.956186,108.10024)">
      <path
         style="fill:none;stroke:#d35f5f;stroke-width:0.5;stroke-linecap:butt;stroke-linejoin:miter;stroke-dasharray:none;stroke-opacity:1"
         d="m 85.930617,77.658517 c 2.869152,-0.272441 5.557718,0.198046 5.676442,2.759748 0.971802,20.968605 -3.154784,33.498725 7.834452,33.518955"
         id="path22"
         sodipodi:nodetypes="csc" />
      <path
         style="opacity:1;fill:#999999;stroke:#d35f5f;stroke-width:0.499999;stroke-dasharray:none"
         id="path23"
         sodipodi:type="arc"
         sodipodi:cx="91.761856"
         sodipodi:cy="83.786186"
         sodipodi:rx="1.0668796"
         sodipodi:ry="1.0668796"
         sodipodi:start="1.5940765"
         sodipodi:end="1.5466776"
         sodipodi:arc-type="slice"
         d="m 91.737021,84.852777 a 1.0668796,1.0668796 0 0 1 -1.041975,-1.078785 1.0668796,1.0668796 0 0 1 1.066363,-1.054685 1.0668796,1.0668796 0 0 1 1.067246,1.05379 1.0668796,1.0668796 0 0 1 -1.04107,1.079659 l -0.02573,-1.06657 z" />
    </g>
    <g
       id="g24"
       transform="matrix(1.2288153,0,0,1.2288153,-3.8640711,139.66536)">
      <path
         style="fill:none;stroke:#d35f5f;stroke-width:0.5;stroke-linecap:butt;stroke-linejoin:miter;stroke-dasharray:none;stroke-opacity:1"
         d="m 100.45249,81.841584 c -0.0169,-4.577339 -6.126451,-1.574147 -6.500941,2.409618 -0.586835,6.242669 -1.238568,8.285737 -8.783478,8.036553"
         id="path24"
         sodipodi:nodetypes="csc" />
    </g>
    <g
       id="g26"
       transform="matrix(1.2288153,0,0,1.2288153,-23.188914,129.2842)">
      <path
         style="fill:none;stroke:#d35f5f;stroke-width:0.5;stroke-linecap:butt;stroke-linejoin:miter;stroke-dasharray:none;stroke-opacity:1"
         d="m 85.930617,77.658517 c 6.214296,0.01922 11.337463,-0.796251 11.342605,5.24085 0.0048,5.608397 13.408948,2.759932 16.755408,2.73421 3.09899,-0.02382 3.91743,2.284182 3.91785,5.372264"
         id="path25"
         sodipodi:nodetypes="cssc" />
      <path
         style="opacity:1;fill:#999999;stroke:#d35f5f;stroke-width:0.499999;stroke-dasharray:none"
         id="path26"
         sodipodi:type="arc"
         sodipodi:cx="97.199844"
         sodipodi:cy="82.353493"
         sodipodi:rx="1.0668796"
         sodipodi:ry="1.0668796"
         sodipodi:start="1.5940765"
         sodipodi:end="1.5466776"
         sodipodi:arc-type="slice"
         d="m 97.175009,83.420083 a 1.0668796,1.0668796 0 0 1 -1.041975,-1.078785 1.0668796,1.0668796 0 0 1 1.066363,-1.054685 1.0668796,1.0668796 0 0 1 1.067247,1.053791 1.0668796,1.0668796 0 0 1 -1.04107,1.079658 l -0.02573,-1.066569 z" />
    </g>
    <rect
       style="opacity:0.518089;fill:#ffaaaa;stroke:#916f6f;stroke-width:0.614406;stroke-dasharray:none"
       id="rect26"
       width="7.4307218"
       height="33.336601"
       x="136.87828"
       y="42.843075" />
    <rect
       style="font-variation-settings:normal;opacity:0.5;vector-effect:none;fill:#ff6600;fill-opacity:1;stroke:#803300;stroke-width:0.122882;stroke-linecap:butt;stroke-linejoin:miter;stroke-miterlimit:4;stroke-dasharray:none;stroke-dashoffset:0;stroke-opacity:1;-inkscape-stroke:none"
       id="rect28"
       width="2.1327324"
       height="5.1464705"
       x="153.5833"
       y="38.137302" />
    <g
       id="g29"
       transform="matrix(1.2288153,0,0,1.2288153,35.825551,-2.0895206)">
      <path
         style="fill:none;stroke:#0000ff;stroke-width:0.5;stroke-linecap:butt;stroke-linejoin:miter;stroke-dasharray:none;stroke-opacity:1"
         d="m 85.930617,77.658517 c 3.299966,-0.252308 7.052078,-0.05879 7.208667,3.990498 0.129844,3.357651 3.743181,2.173314 3.338107,8.530023"
         id="path29"
         sodipodi:nodetypes="csc" />
    </g>
    <text
       xml:space="preserve"
       style="font-size:6.06898px;line-height:1.25;font-family:sans-serif;letter-spacing:0px;word-spacing:0px;stroke-width:0.325124"
       x="106.33668"
       y="23.898369"
       id="text29"><tspan
         sodipodi:role="line"
         id="tspan29"
         style="font-size:6.06898px;text-align:center;text-anchor:middle;stroke-width:0.325124"
         x="106.33668"
         y="23.898369">Vodak32 Overview</tspan></text>
    <text
       xml:space="preserve"
       style="font-size:3.90149px;line-height:1.25;font-family:sans-serif;letter-spacing:0px;word-spacing:0px;stroke-width:0.325124"
       x="66.13549"
       y="61.29248"
       id="text30"><tspan
         sodipodi:role="line"
         id="tspan30"
         style="font-size:3.90149px;text-align:center;text-anchor:middle;stroke-width:0.325124"
         x="66.13549"
         y="61.29248">Sugar+Nutrient</tspan></text>
    <text
       xml:space="preserve"
       style="font-size:3.90149px;line-height:1.25;font-family:sans-serif;letter-spacing:0px;word-spacing:0px;stroke-width:0.325124"
       x="66.13549"
       y="112.79056"
       id="text31"><tspan
         sodipodi:role="line"
         id="tspan31"
         style="font-size:3.90149px;text-align:center;text-anchor:middle;stroke-width:0.325124"
         x="66.13549"
         y="112.79056">Primary</tspan><tspan
         sodipodi:role="line"
         style="font-size:3.90149px;text-align:center;text-anchor:middle;stroke-width:0.325124"
         x="66.13549"
         y="117.66742"
         id="tspan32">Fermenting</tspan></text>
    <text
       xml:space="preserve"
       style="font-size:3.90149px;line-height:1.25;font-family:sans-serif;letter-spacing:0px;word-spacing:0px;stroke-width:0.325124"
       x="66.13549"
       y="164.34148"
       id="text34"><tspan
         sodipodi:role="line"
         id="tspan33"
         style="font-size:3.90149px;text-align:center;text-anchor:middle;stroke-width:0.325124"
         x="66.13549"
         y="164.34148">Secondary</tspan><tspan
         sodipodi:role="line"
         style="font-size:3.90149px;text-align:center;text-anchor:middle;stroke-width:0.325124"
         x="66.13549"
         y="169.21834"
         id="tspan34">Fermenting</tspan></text>
    <text
       xml:space="preserve"
       style="font-size:3.90149px;line-height:1.25;font-family:sans-serif;letter-spacing:0px;word-spacing:0px;stroke-width:0.325124"
       x="66.13549"
       y="216.81705"
       id="text36"><tspan
         sodipodi:role="line"
         style="font-size:3.90149px;text-align:center;text-anchor:middle;stroke-width:0.325124"
         x="66.13549"
         y="216.81705"
         id="tspan36">Water for</tspan><tspan
         sodipodi:role="line"
         style="font-size:3.90149px;text-align:center;text-anchor:middle;stroke-width:0.325124"
         x="66.13549"
         y="221.69391"
         id="tspan37">Steam</tspan></text>
    <text
       xml:space="preserve"
       style="font-size:3.90149px;line-height:1.25;font-family:sans-serif;text-align:start;letter-spacing:0px;word-spacing:0px;text-anchor:start;stroke-width:0.325124"
       x="106.20896"
       y="178.39928"
       id="text39"><tspan
         sodipodi:role="line"
         style="font-size:3.90149px;text-align:start;text-anchor:start;stroke-width:0.325124"
         x="106.20896"
         y="178.39928"
         id="tspan39">2 Stage</tspan><tspan
         sodipodi:role="line"
         style="font-size:3.90149px;text-align:start;text-anchor:start;stroke-width:0.325124"
         x="106.20896"
         y="183.27614"
         id="tspan40">Yeast</tspan><tspan
         sodipodi:role="line"
         style="font-size:3.90149px;text-align:start;text-anchor:start;stroke-width:0.325124"
         x="106.20896"
         y="188.153"
         id="tspan41">Separation</tspan></text>
    <text
       xml:space="preserve"
       style="font-size:3.90149px;line-height:1.25;font-family:sans-serif;text-align:start;letter-spacing:0px;word-spacing:0px;text-anchor:start;stroke-width:0.325124"
       x="144.60085"
       y="142.70148"
       id="text44"><tspan
         sodipodi:role="line"
         style="font-size:3.90149px;text-align:start;text-anchor:start;stroke-width:0.325124"
         x="144.60085"
         y="142.70148"
         id="tspan44">1&quot; Copper</tspan><tspan
         sodipodi:role="line"
         style="font-size:3.90149px;text-align:start;text-anchor:start;stroke-width:0.325124"
         x="144.60085"
         y="147.57834"
         id="tspan46">Fractioning</tspan><tspan
         sodipodi:role="line"
         style="font-size:3.90149px;text-align:start;text-anchor:start;stroke-width:0.325124"
         x="144.60085"
         y="152.4552"
         id="tspan47">Column</tspan></text>
    <text
       xml:space="preserve"
       style="font-size:3.90149px;line-height:1.25;font-family:sans-serif;text-align:start;letter-spacing:0px;word-spacing:0px;text-anchor:start;stroke-width:0.325124"
       x="161.13568"
       y="48.564831"
       id="text50"><tspan
         sodipodi:role="line"
         style="font-size:3.90149px;text-align:start;text-anchor:start;stroke-width:0.325124"
         x="161.13568"
         y="48.564831"
         id="tspan50">Heads</tspan><tspan
         sodipodi:role="line"
         style="font-size:3.90149px;text-align:start;text-anchor:start;stroke-width:0.325124"
         x="161.13568"
         y="53.441692"
         id="tspan52">Collector</tspan></text>
    <text
       xml:space="preserve"
       style="font-size:3.90149px;line-height:1.25;font-family:sans-serif;text-align:end;letter-spacing:0px;word-spacing:0px;text-anchor:end;stroke-width:0.325124"
       x="134.48978"
       y="53.496582"
       id="text54"><tspan
         sodipodi:role="line"
         style="font-size:3.90149px;text-align:end;text-anchor:end;stroke-width:0.325124"
         x="134.48978"
         y="53.496582"
         id="tspan53">Heads</tspan><tspan
         sodipodi:role="line"
         style="font-size:3.90149px;text-align:end;text-anchor:end;stroke-width:0.325124"
         x="134.48978"
         y="58.373444"
         id="tspan54">Heater</tspan></text>
    <text
       xml:space="preserve"
       style="font-size:3.90149px;line-height:1.25;font-family:sans-serif;text-align:start;letter-spacing:0px;word-spacing:0px;text-anchor:start;stroke-width:0.325124"
       x="161.13568"
       y="111.49654"
       id="text56"><tspan
         sodipodi:role="line"
         style="font-size:3.90149px;text-align:start;text-anchor:start;stroke-width:0.325124"
         x="161.13568"
         y="111.49654"
         id="tspan55">Hearts</tspan><tspan
         sodipodi:role="line"
         style="font-size:3.90149px;text-align:start;text-anchor:start;stroke-width:0.325124"
         x="161.13568"
         y="116.37341"
         id="tspan56">Collector</tspan></text>
    <text
       xml:space="preserve"
       style="font-size:3.90149px;line-height:1.25;font-family:sans-serif;letter-spacing:0px;word-spacing:0px;stroke-width:0.325124"
       x="120.55379"
       y="268.06674"
       id="text58"><tspan
         sodipodi:role="line"
         style="font-size:3.90149px;text-align:center;text-anchor:middle;stroke-width:0.325124"
         x="120.55379"
         y="268.06674"
         id="tspan58">Steam Generator</tspan></text>
    <text
       xml:space="preserve"
       style="font-size:3.90149px;line-height:1.25;font-family:sans-serif;text-align:start;letter-spacing:0px;word-spacing:0px;text-anchor:start;stroke-width:0.325124"
       x="142.11938"
       y="252.09702"
       id="text60"><tspan
         sodipodi:role="line"
         style="font-size:3.90149px;text-align:start;text-anchor:start;stroke-width:0.325124"
         x="142.11938"
         y="252.09702"
         id="tspan60">Stripper Coil</tspan><tspan
         sodipodi:role="line"
         style="font-size:3.90149px;text-align:start;text-anchor:start;stroke-width:0.325124"
         x="142.11938"
         y="256.97388"
         id="tspan61">3m x 1/2&quot; Copper</tspan></text>
    <text
       xml:space="preserve"
       style="font-size:3.46799px;line-height:1.25;font-family:sans-serif;text-align:start;letter-spacing:0px;word-spacing:0px;text-anchor:start;stroke-width:0.325124"
       x="99.128036"
       y="228.92978"
       id="text63"><tspan
         sodipodi:role="line"
         style="font-size:3.46799px;text-align:start;text-anchor:start;stroke-width:0.325124"
         x="99.128036"
         y="228.92978"
         id="tspan63">Solenoid</tspan><tspan
         sodipodi:role="line"
         style="font-size:3.46799px;text-align:start;text-anchor:start;stroke-width:0.325124"
         x="99.128036"
         y="233.26477"
         id="tspan64">Valve</tspan></text>
    <text
       xml:space="preserve"
       style="font-size:3.46799px;line-height:1.25;font-family:sans-serif;text-align:start;letter-spacing:0px;word-spacing:0px;text-anchor:start;stroke-width:0.325124"
       x="96.370903"
       y="127.31068"
       id="text66"><tspan
         sodipodi:role="line"
         style="font-size:3.46799px;text-align:start;text-anchor:start;stroke-width:0.325124"
         x="96.370903"
         y="127.31068"
         id="tspan65">Solenoid</tspan><tspan
         sodipodi:role="line"
         style="font-size:3.46799px;text-align:start;text-anchor:start;stroke-width:0.325124"
         x="96.370903"
         y="131.64566"
         id="tspan66">Valve</tspan></text>
    <text
       xml:space="preserve"
       style="font-size:3.46799px;line-height:1.25;font-family:sans-serif;text-align:end;letter-spacing:0px;word-spacing:0px;text-anchor:end;stroke-width:0.325124"
       x="87.725632"
       y="183.34264"
       id="text68"><tspan
         sodipodi:role="line"
         style="font-size:3.46799px;text-align:end;text-anchor:end;stroke-width:0.325124"
         x="87.725632"
         y="183.34264"
         id="tspan67">Solenoid</tspan><tspan
         sodipodi:role="line"
         style="font-size:3.46799px;text-align:end;text-anchor:end;stroke-width:0.325124"
         x="87.725632"
         y="187.67763"
         id="tspan68">Valve</tspan></text>
    <text
       xml:space="preserve"
       style="font-size:3.46799px;line-height:1.25;font-family:sans-serif;text-align:center;letter-spacing:0px;word-spacing:0px;text-anchor:middle;stroke-width:0.325124"
       x="130.67813"
       y="216.83025"
       id="text70"><tspan
         sodipodi:role="line"
         style="font-size:3.46799px;text-align:center;text-anchor:middle;stroke-width:0.325124"
         x="130.67813"
         y="216.83025"
         id="tspan69">Solenoid</tspan><tspan
         sodipodi:role="line"
         style="font-size:3.46799px;text-align:center;text-anchor:middle;stroke-width:0.325124"
         x="130.67813"
         y="221.16524"
         id="tspan70">Valve</tspan></text>
    <text
       xml:space="preserve"
       style="font-size:3.46799px;line-height:1.25;font-family:sans-serif;text-align:start;letter-spacing:0px;word-spacing:0px;text-anchor:start;stroke-width:0.325124"
       x="96.370903"
       y="74.704247"
       id="text72"><tspan
         sodipodi:role="line"
         style="font-size:3.46799px;text-align:start;text-anchor:start;stroke-width:0.325124"
         x="96.370903"
         y="74.704247"
         id="tspan71">Solenoid</tspan><tspan
         sodipodi:role="line"
         style="font-size:3.46799px;text-align:start;text-anchor:start;stroke-width:0.325124"
         x="96.370903"
         y="79.03923"
         id="tspan72">Valve</tspan></text>
    <rect
       style="font-variation-settings:normal;opacity:0.5;vector-effect:none;fill:#800080;fill-opacity:1;stroke:#0000ff;stroke-width:0.122882;stroke-linecap:butt;stroke-linejoin:miter;stroke-miterlimit:4;stroke-dasharray:none;stroke-dashoffset:0;stroke-opacity:1;-inkscape-stroke:none"
       id="rect72"
       width="21.904491"
       height="18.82011"
       x="56.626678"
       y="240.96664" />
    <text
       xml:space="preserve"
       style="font-size:3.90149px;line-height:1.25;font-family:sans-serif;letter-spacing:0px;word-spacing:0px;stroke-width:0.325124"
       x="67.652267"
       y="246.25844"
       id="text73"><tspan
         sodipodi:role="line"
         style="font-size:3.90149px;text-align:center;text-anchor:middle;stroke-width:0.325124"
         x="67.652267"
         y="246.25844"
         id="tspan73">ESP32</tspan><tspan
         sodipodi:role="line"
         style="font-size:3.90149px;text-align:center;text-anchor:middle;stroke-width:0.325124"
         x="67.652267"
         y="251.1353"
         id="tspan74">Control</tspan></text>
    <g
       id="g74"
       transform="matrix(1.2288153,0,0,1.2288153,-60.309168,140.05682)">
      <path
         style="fill:none;stroke:#d35f5f;stroke-width:0.5;stroke-linecap:butt;stroke-linejoin:miter;stroke-dasharray:none;stroke-opacity:1"
         d="m 74.15367,83.470195 c 5.286517,-0.353631 14.360971,0.810906 12.807497,2.826716 -4.996951,6.484115 4.304281,5.791507 8.371816,5.711505"
         id="path74"
         sodipodi:nodetypes="csc" />
    </g>
    <text
       xml:space="preserve"
       style="font-size:3.90149px;line-height:1.25;font-family:sans-serif;letter-spacing:0px;word-spacing:0px;stroke-width:0.325124"
       x="30.150171"
       y="240.9337"
       id="text76"><tspan
         sodipodi:role="line"
         style="font-size:3.90149px;text-align:center;text-anchor:middle;stroke-width:0.325124"
         x="30.150171"
         y="240.9337"
         id="tspan76">Solar</tspan><tspan
         sodipodi:role="line"
         style="font-size:3.90149px;text-align:center;text-anchor:middle;stroke-width:0.325124"
         x="30.150171"
         y="245.81056"
         id="tspan80">Power</tspan><tspan
         sodipodi:role="line"
         style="font-size:3.90149px;text-align:center;text-anchor:middle;stroke-width:0.325124"
         x="30.150171"
         y="250.68742"
         id="tspan81">18/36/54V</tspan><tspan
         sodipodi:role="line"
         style="font-size:3.90149px;text-align:center;text-anchor:middle;stroke-width:0.325124"
         x="30.150171"
         y="255.56429"
         id="tspan83">Heaters</tspan></text>
    <g
       id="g76"
       transform="matrix(1.2288153,0,0,1.2288153,-29.91455,158.65744)">
      <path
         style="fill:none;stroke:#d35f5f;stroke-width:0.5;stroke-linecap:butt;stroke-linejoin:miter;stroke-dasharray:none;stroke-opacity:1"
         d="m 78.657072,82.476105 c -0.717131,7.480406 1.870164,4.966932 4.401802,4.558 3.864276,-0.624191 4.604545,3.926943 4.213052,6.449168"
         id="path76"
         sodipodi:nodetypes="csc" />
    </g>
    <text
       xml:space="preserve"
       style="font-size:3.90149px;line-height:1.25;font-family:sans-serif;letter-spacing:0px;word-spacing:0px;stroke-width:0.325124"
       x="71.611916"
       y="273.37906"
       id="text78"><tspan
         sodipodi:role="line"
         style="font-size:3.90149px;text-align:center;text-anchor:middle;stroke-width:0.325124"
         x="71.611916"
         y="273.37906"
         id="tspan78">12V</tspan><tspan
         sodipodi:role="line"
         style="font-size:3.90149px;text-align:center;text-anchor:middle;stroke-width:0.325124"
         x="71.611916"
         y="278.25592"
         id="tspan79">Logic/Valve</tspan><tspan
         sodipodi:role="line"
         style="font-size:3.90149px;text-align:center;text-anchor:middle;stroke-width:0.325124"
         x="71.611916"
         y="283.13278"
         id="tspan82">Power</tspan></text>
    <text
       xml:space="preserve"
       style="font-size:3.46799px;line-height:1.25;font-family:sans-serif;text-align:start;letter-spacing:0px;word-spacing:0px;text-anchor:start;stroke-width:0.325124"
       x="114.59725"
       y="258.25122"
       id="text85"><tspan
         sodipodi:role="line"
         style="font-size:3.46799px;text-align:start;text-anchor:start;stroke-width:0.325124"
         x="114.59725"
         y="258.25122"
         id="tspan85">Heater</tspan></text>
  </g>
</svg>
